<svg width="33" height="27" viewBox="0 0 33 27" fill="none" xmlns="http://www.w3.org/2000/svg">
<path fill-rule="evenodd" clip-rule="evenodd" d="M10.9375 3.28125C10.9375 2.99117 11.0527 2.71297 11.2579 2.50785C11.463 2.30273 11.7412 2.1875 12.0312 2.1875H29.5312C29.8213 2.1875 30.0995 2.30273 30.3046 2.50785C30.5098 2.71297 30.625 2.99117 30.625 3.28125V22.9688C30.625 23.2588 30.5098 23.537 30.3046 23.7421C30.0995 23.9473 29.8213 24.0625 29.5312 24.0625H12.0312C11.7412 24.0625 11.463 23.9473 11.2579 23.7421C11.0527 23.537 10.9375 23.2588 10.9375 22.9688V18.5938C10.9375 18.3037 10.8223 18.0255 10.6171 17.8204C10.412 17.6152 10.1338 17.5 9.84375 17.5C9.55367 17.5 9.27547 17.6152 9.07035 17.8204C8.86523 18.0255 8.75 18.3037 8.75 18.5938V22.9688C8.75 23.839 9.0957 24.6736 9.71106 25.2889C10.3264 25.9043 11.161 26.25 12.0312 26.25H29.5312C30.4015 26.25 31.2361 25.9043 31.8514 25.2889C32.4668 24.6736 32.8125 23.839 32.8125 22.9688V3.28125C32.8125 2.41101 32.4668 1.57641 31.8514 0.961056C31.2361 0.345702 30.4015 0 29.5312 0H12.0312C11.161 0 10.3264 0.345702 9.71106 0.961056C9.0957 1.57641 8.75 2.41101 8.75 3.28125V7.65625C8.75 7.94633 8.86523 8.22453 9.07035 8.42965C9.27547 8.63477 9.55367 8.75 9.84375 8.75C10.1338 8.75 10.412 8.63477 10.6171 8.42965C10.8223 8.22453 10.9375 7.94633 10.9375 7.65625V3.28125Z" fill="#C49CDD"/>
<path fill-rule="evenodd" clip-rule="evenodd" d="M23.7431 13.8994C23.845 13.7978 23.9258 13.6771 23.9809 13.5442C24.0361 13.4113 24.0645 13.2689 24.0645 13.125C24.0645 12.9811 24.0361 12.8387 23.9809 12.7058C23.9258 12.5729 23.845 12.4522 23.7431 12.3506L17.1806 5.78812C17.0789 5.68643 16.9582 5.60576 16.8253 5.55072C16.6925 5.49569 16.5501 5.46736 16.4062 5.46736C16.2624 5.46736 16.12 5.49569 15.9872 5.55072C15.8543 5.60576 15.7336 5.68643 15.6319 5.78812C15.5302 5.88981 15.4495 6.01054 15.3945 6.1434C15.3394 6.27627 15.3111 6.41868 15.3111 6.56249C15.3111 6.70631 15.3394 6.84872 15.3945 6.98158C15.4495 7.11445 15.5302 7.23518 15.6319 7.33687L20.3284 12.0312H1.09375C0.803669 12.0312 0.52547 12.1465 0.320352 12.3516C0.115234 12.5567 0 12.8349 0 13.125C0 13.4151 0.115234 13.6933 0.320352 13.8984C0.52547 14.1035 0.803669 14.2187 1.09375 14.2187H20.3284L15.6319 18.9131C15.5302 19.0148 15.4495 19.1355 15.3945 19.2684C15.3394 19.4013 15.3111 19.5437 15.3111 19.6875C15.3111 19.8313 15.3394 19.9737 15.3945 20.1066C15.4495 20.2395 15.5302 20.3602 15.6319 20.4619C15.7336 20.5636 15.8543 20.6442 15.9872 20.6993C16.12 20.7543 16.2624 20.7826 16.4062 20.7826C16.5501 20.7826 16.6925 20.7543 16.8253 20.6993C16.9582 20.6442 17.0789 20.5636 17.1806 20.4619L23.7431 13.8994V13.8994Z" fill="#C49CDD"/>
</svg>
