<svg width="35" height="35" viewBox="0 0 35 35" fill="none" xmlns="http://www.w3.org/2000/svg">
<path d="M32.8125 27.3438L31.2659 25.7972L28.4375 28.6256V19.6875H26.25V28.6256L23.4216 25.7972L21.875 27.3438L27.3438 32.8125L32.8125 27.3438Z" fill="#66888F"/>
<path d="M19.6875 30.625H8.75V4.37501H17.5V10.9375C17.5017 11.5171 17.7328 12.0725 18.1426 12.4824C18.5525 12.8923 19.1079 13.1233 19.6875 13.125H26.25V16.4063H28.4375V10.9375C28.4414 10.7938 28.414 10.6509 28.3574 10.5187C28.3007 10.3865 28.2161 10.2682 28.1094 10.1719L20.4531 2.51563C20.3568 2.40882 20.2385 2.32417 20.1063 2.26752C19.9742 2.21087 19.8313 2.18357 19.6875 2.18751H8.75C8.17037 2.18924 7.61498 2.42026 7.20512 2.83012C6.79526 3.23998 6.56423 3.79538 6.5625 4.37501V30.625C6.56423 31.2046 6.79526 31.76 7.20512 32.1699C7.61498 32.5798 8.17037 32.8108 8.75 32.8125H19.6875V30.625ZM19.6875 4.81251L25.8125 10.9375H19.6875V4.81251Z" fill="#66888F"/>
</svg>
